# xmcd
#
# Track frame offsets: 
#        150
#        18559
#        37099
#        56104
#        73378
#        92056
#        109155
#        128674
#        158424
#        177614
#
# Disc length: 2559 seconds
#
# Revision: 0
# Processed by: cddbd v1.5.2PL0 Copyright (c) Steve Scherf et al.
# Submitted via: ExactAudioCopyFreeDBPlugin 1.0
#
DISCID=8d09fd0a
DTITLE=Matthew Curry and the Fury - Electric Religion
DYEAR=2013
DGENRE=Blues Rock
TTITLE0=Love Me Right
TTITLE1=Set Me Free
TTITLE2=Six String Broken Heart
TTITLE3=Put One Over
TTITLE4=Hundred Dollar Friend
TTITLE5=JMH
TTITLE6=Genevieve
TTITLE7=Bad Bad Day
TTITLE8=Down the Line
TTITLE9=Louanna
EXTD=
EXTT0=
EXTT1=
EXTT2=
EXTT3=
EXTT4=
EXTT5=
EXTT6=
EXTT7=
EXTT8=
EXTT9=
PLAYORDER=
